<?xml version="1.0" encoding="UTF-8"?>
<svg id="TITLE" xmlns="http://www.w3.org/2000/svg" viewBox="0 0 557.97 259.49">
  <defs>
    <style>
      .cls-1 {
        fill: #0ca1a6;
      }

      .cls-2, .cls-3 {
        fill: #f26727;
      }

      .cls-4 {
        fill: #fff;
      }

      .cls-5 {
        letter-spacing: .03em;
      }

      .cls-6 {
        fill: #a5f2ee;
      }

      .cls-3 {
        font-family: TynineSansMonoStd-Bld, 'Typonine Sans Monospace Std';
      }

      .cls-3, .cls-7 {
        font-size: 34.37px;
      }

      .cls-8, .cls-7 {
        fill: #362a86;
      }

      .cls-7 {
        font-family: TynineSansMonoStd-Reg, 'Typonine Sans Monospace Std';
      }

      .cls-7, .cls-9 {
        letter-spacing: .01em;
      }

      .cls-10 {
        fill: #7fcbcd;
      }

      .cls-11 {
        fill: #00929f;
      }
    </style>
  </defs>
  <g>
    <path class="cls-10" d="M335.51,188.42c-3.41,0-6.86-.25-10.26-.74-42.81-6.11-67.85-49.58-72.44-58.23l6.62-3.51c2.63,4.96,26.83,48.6,66.88,54.32,3.06.44,6.15.66,9.2.66v7.49Z"/>
    <path class="cls-2" d="M301.9,79.61l-1.41-2.55c-28.14,15.6-44.61,46.13-47.62,52.09l-2.98,6.06-3.15-1.55-1.3,2.88,11.18,5.02,5.01-11.16c2.95-5.46,25.84-45.76,62.67-52.55l-1.11-6.02c-7.23,1.34-14.38,3.94-21.29,7.77Z"/>
    <path class="cls-10" d="M234.08,166.31c-8.11,11.03-17.07,20.57-26.67,28.37l2.32,2.85c9.5-7.71,18.37-17.07,26.44-27.85,16.51,22.53,43.98,49.25,83.79,54.93l.94-6.6c-40.7-5.81-67.95-34.59-84.16-59.08-.76-1.16-2.66,7.37-2.66,7.37Z"/>
    <path class="cls-6" d="M154.56,218.55l-1.21-8.49c39.53-5.64,65.69-35.06,80.68-58.77.46-.8,4.5-7.8,6.04-10.74l7.59,3.99c-1.71,3.25-6.07,10.79-6.25,11.11l-.09.15c-15.95,25.25-43.95,56.64-86.77,62.75Z"/>
    <path class="cls-6" d="M174.19,76.66l.87-1.61c-8.09-4.31-16.4-7.13-24.77-8.33-3.46-.49-6.96-.74-10.38-.74-27.6,0-52.29,16.6-61.44,41.31l8.88,3.29c7.78-21.01,28.9-35.12,52.56-35.12,2.98,0,6.02.22,9.04.65,16.04,2.29,31.45,11.04,45.8,26l5.23-5.02c-7.06-7.55-15.69-14.95-25.8-20.42Z"/>
    <path class="cls-8" d="M109.43,187.27c-23.79-11.06-39.16-34.45-39.16-59.58,0-12.72,3.73-25.02,10.78-35.59,2.68-4.02,5.85-7.8,9.42-11.21l4.37,4.56c-3.23,3.09-6.1,6.51-8.53,10.15-6.36,9.53-9.71,20.62-9.71,32.08,0,23.04,13.61,43.67,35.51,53.86l-2.66,5.73Z"/>
    <path class="cls-10" d="M225.31,135.45l-2.74-6.39c-.25-.49-.59-1.15-1.01-1.93-4.79,9.08-30.02,53.42-71.5,59.34-3.39.48-6.88,1.59-10.18,1.59-9.66,0-18.93-2.04-27.54-6.04l-3.16,5.79c9.61,4.47,19.94,6.74,30.7,6.74,3.65,0,7.4-.27,11.13-.8,40.02-5.72,65.28-42.32,74.58-58.42l-.29.12Z"/>
    <path class="cls-8" d="M228.48,134.09l-3.17,1.36-2.74-6.39c-2.05-4.04-9.74-18.26-22.58-31.98l-5.23,5.02c11.27,11.74,18.04,23.38,20.42,27.84l9.61,16.77,8.22-4.71-4.53-7.91Z"/>
    <path class="cls-1" d="M249.44,143.38l-21.25-10.11,5.05-10.63c3.28-6.9,15.69-30.9,37.54-50.08l8.84-7.76,15.53,17.69-8.84,7.76c-18.94,16.63-29.83,38.33-31.81,42.51l-5.06,10.63Z"/>
    <path class="cls-4" d="M69.54,156.07c-3.92-8.96-5.92-18.5-5.92-28.38,0-19.55,7.9-37.88,22.25-51.6,5.01-4.79,10.67-8.88,16.81-12.15l3.45,6.49c-5.55,2.96-10.66,6.65-15.19,10.98-12.88,12.32-19.98,28.76-19.98,46.29,0,8.85,1.78,17.4,5.3,25.43l-6.73,2.95Z"/>
    <path class="cls-2" d="M94.86,85.5l-4.44-4.64c13.14-12.56,30.71-19.48,49.49-19.48,3.66,0,7.37.26,11.03.79,8.96,1.28,17.81,4.26,26.3,8.85l-3.05,5.65c-7.82-4.23-15.94-6.96-24.15-8.14-3.36-.48-6.77-.72-10.12-.72-17.11,0-33.11,6.29-45.05,17.7Z"/>
    <path class="cls-8" d="M50.87,127.69h-3.92c0-24.15,9.73-46.75,27.39-63.64l2.71,2.83c-16.88,16.15-26.18,37.75-26.18,60.81Z"/>
    <path class="cls-8" d="M206.07,60.65c-15.85-12.67-33.22-20.42-51.63-23.05-4.82-.69-9.71-1.04-14.53-1.04-19.07,0-37.38,5.36-52.95,15.51l-2.86-4.38c16.42-10.7,35.72-16.36,55.81-16.36,5.07,0,10.21.37,15.27,1.09,19.35,2.76,37.57,10.89,54.15,24.14l-3.27,4.09Z"/>
    <path class="cls-10" d="M254.67,96.11l-7.3-5.52c14.45-19.11,39.06-42.95,74.29-47.97,4.58-.66,9.23-.99,13.81-.99,11.87,0,23.38,2.17,34.19,6.44l-3.36,8.51c-9.74-3.85-20.11-5.8-30.82-5.8-4.15,0-8.36.3-12.52.9-32.15,4.59-54.88,26.69-68.29,44.43Z"/>
    <path class="cls-8" d="M239.95,111.01l-10.21-4.16,3.04-7.46.26-.41c13.19-20.87,42.11-56.86,87.63-63.36,4.92-.7,9.9-1.06,14.81-1.06v11.03c-4.39,0-8.85.32-13.25.95-38.84,5.54-64.69,34.46-79.6,57.92l-2.67,6.55Z"/>
    <path class="cls-2" d="M402.1,62.93c-17.77-17-41.43-26.37-66.62-26.37-4.82,0-9.71.35-14.53,1.04l-.74-5.18c5.07-.72,10.21-1.09,15.27-1.09,26.55,0,51.49,9.88,70.24,27.82l-3.62,3.78Z"/>
    <path class="cls-6" d="M153.17,208.84l-1.91-13.35c53.36-7.62,79.95-69.77,80.21-70.4,1.18-2.84,29.71-69.85,90.75-78.56l1.9,13.35c-53.53,7.64-79.94,69.77-80.21,70.4-1.19,2.85-29.73,69.85-90.75,78.56Z"/>
    <path class="cls-1" d="M97.1,195.35l5.85-10.07c14.36,8.34,31.01,11.46,48.13,9.01l1.65,11.53c11.16-1.59,22.06-5.41,32.4-11.35l-9.77-17c-8.18,4.7-16.73,7.71-25.41,8.95-3.37.48-6.76.72-10.08.72-16.98,0-32.86-6.24-44.7-17.58-5.74-5.49-10.21-11.85-13.29-18.89l-16.83,7.37c4.02,9.17,9.88,17.58,17.42,24.8l-.85.89c4.71,4.51,9.91,8.4,15.48,11.64Z"/>
    <path class="cls-1" d="M139.88,226.34c-27.14,0-52.64-10.11-71.82-28.46l6.78-7.08c17.34,16.6,40.44,25.74,65.03,25.74,4.72,0,9.51-.34,14.24-1.02,18.34-2.62,35.62-10.43,51.36-23.22l6.18,7.61c-17.13,13.92-36.03,22.44-56.15,25.31-5.19.74-10.45,1.12-15.63,1.12Z"/>
    <path class="cls-1" d="M97.41,194.82c-24.61-14.29-39.31-39.38-39.31-67.12,0-4.04.32-8.08.94-12.03l6.05.96c-.58,3.63-.87,7.35-.87,11.07,0,25.53,13.55,48.64,36.26,61.82l-3.08,5.3Z"/>
    <path class="cls-6" d="M67.89,117.07l-11.62-1.84c3.36-21.2,15.08-39.92,32.99-52.74,18.19-13.01,40.84-18.38,63.8-15.11,5.17.74,10.32,1.95,15.31,3.58l-3.67,11.18c-4.33-1.42-8.81-2.47-13.3-3.11-40.73-5.8-77.41,19.68-83.5,58.04Z"/>
    <path class="cls-6" d="M139.88,219.6c-25.39,0-49.24-9.45-67.16-26.59-16.31-15.61-26.2-36.38-27.85-58.51v-.16s-.25-6.49-.25-6.49l8.57-.32.24,6.41c1.51,19.98,10.46,38.75,25.22,52.87,16.31,15.61,38.05,24.21,61.22,24.21,4.45,0,8.98-.33,13.46-.97l1.21,8.49c-4.88.7-9.82,1.05-14.67,1.05Z"/>
    <path class="cls-1" d="M417.87,127.69h-7.35c0-20.25-8.93-39.62-24.51-53.13-16.74-14.52-39.45-20.97-62.31-17.71l-1.04-7.28c24.97-3.56,49.82,3.52,68.17,19.44,17.19,14.91,27.05,36.3,27.05,58.68Z"/>
    <rect class="cls-10" x="130.6" y="96.85" width="19.89" height="61.7"/>
    <rect class="cls-2" x="109.7" y="117.76" width="61.7" height="19.89"/>
    <path class="cls-1" d="M436.11,136.68l-7.86-.73c.25-2.71.38-5.49.38-8.26,0-24.21-9.75-46.87-27.45-63.8l5.46-5.7c19.27,18.44,29.89,43.12,29.89,69.51,0,3.01-.14,6.03-.41,8.99Z"/>
    <path class="cls-8" d="M409.07,141.27l-5.13-1.02c.82-4.15,1.24-8.41,1.24-12.67,0-17.82-7.21-34.53-20.3-47.06l3.62-3.78c14.13,13.52,21.92,31.58,21.92,50.84,0,4.6-.45,9.21-1.34,13.69Z"/>
    <path class="cls-1" d="M400.09,142.53l-11.88-3.03c.98-3.83,1.47-7.81,1.47-11.81,0-28.04-24.32-50.85-54.21-50.85-2.91,0-5.89.21-8.84.63-.78.11-1.56.24-2.34.38l-2.21-12.05c.94-.17,1.88-.33,2.83-.46,3.53-.5,7.09-.75,10.57-.75,36.65,0,66.46,28.31,66.46,63.11,0,5.03-.62,10.02-1.85,14.84Z"/>
    <path class="cls-2" d="M66.37,199.65c-10.73-10.27-18.86-22.33-24.16-35.84l13.69-5.37c4.51,11.51,11.46,21.8,20.63,30.58l-10.17,10.63Z"/>
    <path class="cls-10" d="M280.56,83.7l-4.04-4.6c14.56-12.79,30.4-20.48,47.09-22.86,3.94-.56,7.93-.85,11.87-.85,20.32,0,39.36,7.51,53.6,21.14l-4.24,4.43c-13.1-12.54-30.63-19.44-49.37-19.44-3.64,0-7.35.27-11,.79-15.49,2.21-30.26,9.41-43.91,21.4Z"/>
    <path class="cls-2" d="M395.16,110.99c-2.85-9.26-8.17-17.81-15.39-24.72-9.46-9.05-21.47-14.83-34.74-16.73l1.21-8.49c15.05,2.15,28.69,8.72,39.46,19.02,8.27,7.92,14.38,17.74,17.66,28.39l-8.2,2.53Z"/>
    <path class="cls-8" d="M139.88,211.86c-23.39,0-45.33-8.68-61.8-24.44l3.7-3.87c15.47,14.8,36.1,22.96,58.1,22.96,4.24,0,8.55-.31,12.83-.92,44.01-6.29,70.61-43.53,82.58-65.26l3.04-7.19,4.93,2.08-3.21,7.56c-12.42,22.59-40.19,61.47-86.58,68.1-4.52.65-9.09.98-13.58.98Z"/>
    <path class="cls-6" d="M242.86,94.6l-10.32-7.28c16.51-23.4,45.02-52.55,87.15-58.56l1.79,12.5c-37.66,5.38-63.54,31.97-78.61,53.34Z"/>
    <path class="cls-10" d="M239.78,99.7l-5.29-6.48c-8.78-12.45-18.62-23.06-29.24-31.55l4.9-6.13c11.16,8.92,21.48,20.04,30.67,33.04l5.03,6.16-6.08,4.96Z"/>
    <path class="cls-2" d="M179.27,189.61l-2.67-4.64,2.32-1.33c30.27-17.38,47.19-50.6,50.27-57.08l1.15-2.42,4.83,2.3-1.15,2.42c-3.2,6.74-20.78,41.26-52.44,59.43l-2.32,1.33Z"/>
    <path class="cls-10" d="M246.15,124.18c-.27-.64-2.18-5.15-5.81-11.73l1.36-.75c-12.63-22.91-40.85-62.36-87.97-69.08-4.58-.66-9.23-.99-13.82-.99v9.15c4.15,0,8.37.3,12.53.9,5.09.73,9.94,1.89,14.57,3.4l-3.35,10.18c43.5,14.31,65.38,65.45,65.59,65.96,1.21,2.9,30.25,71.12,92.63,80.02l2.59-18.12c-51.98-7.42-78.06-68.33-78.32-68.93Z"/>
    <path class="cls-2" d="M335.51,214.7c-4.62,0-9.32-.34-13.98-1-20.8-2.97-40.11-12.64-57.38-28.73l7.52-8.07c15.59,14.53,32.88,23.24,51.41,25.88,4.95.71,9.92.98,14.81.86l.26,11.03c-.88.02-1.76.03-2.64.03Z"/>
    <path class="cls-8" d="M340.44,193.76c-5.26.34-10.61.14-15.97-.62-12.23-1.75-24.08-6.63-35.22-14.51l-3.46,4.9c11.93,8.44,24.66,13.67,37.84,15.55,3.97.57,7.97.85,11.89.85,1.65,0,3.29-.06,4.93-.16v-6.01Z"/>
  </g>
  <g>
    <path class="cls-11" d="M360.56,183.35l7.89-25.13h7l8,25.13h-6.61l-1.39-5.14h-7.23l-1.28,5.14h-6.38ZM371.7,164.18l-2.28,9.2h4.75l-2.47-9.2Z"/>
    <path class="cls-11" d="M387.43,158.22h10.13c6.96,0,9.59,3.56,9.59,8.39,0,3.44-1.39,6.07-4.14,7.54l4.91,9.2h-7.35l-3.79-7.96h-3.13v7.96h-6.22v-25.13ZM400.54,166.65c0-2.24-.81-3.36-3.71-3.36h-3.17v7.11h3.29c2.16,0,3.6-.97,3.6-3.75Z"/>
    <path class="cls-11" d="M412.18,158.22h8.23c9.39,0,12.53,4.45,12.53,12.33,0,5.95-1.82,12.8-12.49,12.8h-8.27v-25.13ZM418.4,163.29v14.92h2.36c5.14,0,5.53-3.13,5.53-7.38,0-4.91-.5-7.54-6.07-7.54h-1.82Z"/>
    <path class="cls-11" d="M451.34,158.22h5.99v16.51c0,7.42-5.68,9.01-10.13,9.01s-9.78-1.43-9.78-9.05v-16.47h6.22v15.31c0,4.18,1.47,5.14,3.83,5.14,2.82,0,3.87-1.28,3.87-5.1v-15.35Z"/>
    <path class="cls-11" d="M462.9,178.21h6.49v-14.85h-6.49v-5.14h19.25v5.14h-6.53v14.85h6.53v5.14h-19.25v-5.14Z"/>
    <path class="cls-11" d="M493.18,183.35h-5.88v-25.13h6.77l8.16,15.08v-15.08h5.8v25.13h-6.3l-8.58-16.08.04,16.08Z"/>
    <path class="cls-11" d="M533.46,170.79c0,7.27-2.67,12.95-10.75,12.95-7.23,0-10.55-4.37-10.55-12.68,0-7.58,2.9-13.18,10.52-13.18,7.15,0,10.79,3.32,10.79,12.91ZM526.85,170.79c0-6.15-.5-7.85-4.18-7.85-3.32,0-3.9,1.97-3.9,8.12,0,5.06.35,7.62,3.94,7.62s4.14-2.09,4.14-7.89Z"/>
    <text class="cls-3" transform="translate(360.48 216.24)"><tspan class="cls-5" x="0" y="0">D</tspan><tspan class="cls-9" x="21.52" y="0">AYS</tspan></text>
    <text class="cls-7" transform="translate(449.94 216.75)"><tspan x="0" y="0">2026</tspan></text>
  </g>
</svg>