<?xml version="1.0" encoding="UTF-8"?>
<svg id="TITLE" xmlns="http://www.w3.org/2000/svg" viewBox="0 0 172.98 68.09">
  <defs>
    <style>
      .cls-1 {
        letter-spacing: .03em;
      }

      .cls-2 {
        fill: #f26727;
        font-family: TynineSansMonoStd-Bld, 'Typonine Sans Monospace Std';
      }

      .cls-2, .cls-3 {
        font-size: 34.37px;
      }

      .cls-3 {
        fill: #362a86;
        font-family: TynineSansMonoStd-Reg, 'Typonine Sans Monospace Std';
      }

      .cls-3, .cls-4 {
        letter-spacing: .01em;
      }

      .cls-5 {
        fill: #00929f;
      }
    </style>
  </defs>
  <path class="cls-5" d="M.08,25.48L7.97.35h7l8,25.13h-6.61l-1.39-5.14h-7.23l-1.28,5.14H.08ZM11.22,6.3l-2.28,9.2h4.75l-2.47-9.2Z"/>
  <path class="cls-5" d="M26.95.35h10.13c6.96,0,9.59,3.56,9.59,8.39,0,3.44-1.39,6.07-4.14,7.54l4.91,9.2h-7.35l-3.79-7.96h-3.13v7.96h-6.22V.35ZM40.06,8.78c0-2.24-.81-3.36-3.71-3.36h-3.17v7.11h3.29c2.16,0,3.6-.97,3.6-3.75Z"/>
  <path class="cls-5" d="M51.7.35h8.23c9.39,0,12.53,4.45,12.53,12.33,0,5.95-1.82,12.8-12.49,12.8h-8.27V.35ZM57.92,5.41v14.92h2.36c5.14,0,5.53-3.13,5.53-7.38,0-4.91-.5-7.54-6.07-7.54h-1.82Z"/>
  <path class="cls-5" d="M90.86.35h5.99v16.51c0,7.42-5.68,9.01-10.13,9.01s-9.78-1.43-9.78-9.05V.35h6.22v15.31c0,4.18,1.47,5.14,3.83,5.14,2.82,0,3.87-1.28,3.87-5.1V.35Z"/>
  <path class="cls-5" d="M102.42,20.34h6.49V5.49h-6.49V.35h19.25v5.14h-6.53v14.85h6.53v5.14h-19.25v-5.14Z"/>
  <path class="cls-5" d="M132.69,25.48h-5.88V.35h6.77l8.16,15.08V.35h5.8v25.13h-6.3l-8.58-16.08.04,16.08Z"/>
  <path class="cls-5" d="M172.98,12.91c0,7.27-2.67,12.95-10.75,12.95-7.23,0-10.55-4.37-10.55-12.68,0-7.58,2.9-13.18,10.52-13.18,7.15,0,10.79,3.32,10.79,12.91ZM166.37,12.91c0-6.15-.5-7.85-4.18-7.85-3.32,0-3.9,1.97-3.9,8.12,0,5.06.35,7.62,3.94,7.62s4.14-2.09,4.14-7.89Z"/>
  <text class="cls-2" transform="translate(0 58.37)"><tspan class="cls-1" x="0" y="0">D</tspan><tspan class="cls-4" x="21.52" y="0">AYS</tspan></text>
  <text class="cls-3" transform="translate(89.46 58.88)"><tspan x="0" y="0">2026</tspan></text>
</svg>