<?xml version="1.0" encoding="UTF-8"?>
<svg id="Layer_1" xmlns="http://www.w3.org/2000/svg" version="1.1" viewBox="0 0 226.4 42.1">
  <!-- Generator: Adobe Illustrator 29.8.4, SVG Export Plug-In . SVG Version: 2.1.1 Build 6)  -->
  <defs>
    <style>
      .st0 {
        fill: #f26727;
      }

      .st1 {
        fill: #362a86;
      }

      .st2 {
        fill: #00929f;
      }
    </style>
  </defs>
  <path class="st2" d="M10.5,26.8l4.3-13.8h3.8l4.4,13.8h-3.6l-.8-2.8h-4l-.7,2.8h-3.5ZM16.6,16.3l-1.3,5.1h2.6l-1.4-5.1Z"/>
  <path class="st2" d="M25.2,13h5.6c3.8,0,5.3,2,5.3,4.6s-.8,3.3-2.3,4.1l2.7,5.1h-4l-2.1-4.4h-1.7v4.4h-3.4v-13.8ZM32.4,17.6c0-1.2-.4-1.8-2-1.8h-1.7v3.9h1.8c1.2,0,2-.5,2-2.1Z"/>
  <path class="st2" d="M38.8,13h4.5c5.2,0,6.9,2.4,6.9,6.8s-1,7-6.9,7h-4.5v-13.8ZM42.2,15.8v8.2h1.3c2.8,0,3-1.7,3-4.1s-.3-4.1-3.3-4.1h-1Z"/>
  <path class="st2" d="M60.3,13h3.3v9.1c0,4.1-3.1,4.9-5.6,4.9s-5.4-.8-5.4-5v-9h3.4v8.4c0,2.3.8,2.8,2.1,2.8s2.1-.7,2.1-2.8v-8.4Z"/>
  <path class="st2" d="M66.7,24h3.6v-8.1h-3.6v-2.8h10.6v2.8h-3.6v8.1h3.6v2.8h-10.6v-2.8Z"/>
  <path class="st2" d="M83.3,26.8h-3.2v-13.8h3.7l4.5,8.3v-8.3h3.2v13.8h-3.5l-4.7-8.8v8.8Z"/>
  <path class="st2" d="M105.4,19.9c0,4-1.5,7.1-5.9,7.1s-5.8-2.4-5.8-7,1.6-7.2,5.8-7.2,5.9,1.8,5.9,7.1ZM101.8,19.9c0-3.4-.3-4.3-2.3-4.3s-2.1,1.1-2.1,4.5.2,4.2,2.2,4.2,2.3-1.1,2.3-4.3Z"/>
  <path class="st0" d="M109.9,13h4.5c5.2,0,6.9,2.4,6.9,6.8s-1,7-6.9,7h-4.5v-13.8ZM113.3,15.8v8.2h1.3c2.8,0,3-1.7,3-4.1s-.3-4.1-3.3-4.1h-1Z"/>
  <path class="st0" d="M123,26.8l4.3-13.8h3.8l4.4,13.8h-3.6l-.8-2.8h-4l-.7,2.8h-3.5ZM129.1,16.3l-1.3,5.1h2.6l-1.4-5.1Z"/>
  <path class="st0" d="M143.3,18.7l2.4-5.6h3.4l-4.3,8.3v5.5h-3.4v-5.3l-4.5-8.4h3.7l2.6,5.6Z"/>
  <path class="st0" d="M151.8,16.8c0-2.3,2.4-4,5.3-4s2.8.2,4.4,1.1l-.9,3.1c-.9-.8-2.1-1.4-3.5-1.4s-1.7.3-1.7,1c0,2,6.7,1.5,6.7,6.2s-2.8,4.2-6,4.2-3-.2-4.7-1.3l1.1-3.1c1.1,1,2.4,1.6,3.9,1.6s2-.3,2-1.1c0-2.3-6.7-1.5-6.7-6.3Z"/>
  <path class="st1" d="M172.9,16.7c0-1.6-1.1-2.4-2.5-2.4s-2.2.6-2.9,1.5l-.9-1.1c.7-.7,2.2-1.8,4.2-1.8s3.9,1.3,3.9,3.7-3.7,6.8-6.5,8.9h7.2v1.5h-9.3v-1.2c2.6-1.8,6.9-6.2,6.9-8.9Z"/>
  <path class="st1" d="M188.8,19.5c0,3.4-.9,7.5-5.4,7.5s-5.2-2.4-5.2-6.8,1.2-7.4,5.3-7.4,5.2,2.6,5.2,6.7ZM181,24.5l4.1-9.9c-.4-.2-1-.3-1.6-.3-2.8,0-3.5,2.8-3.5,5.5s.1,3.6,1,4.8ZM187.1,19.8c0-1.6-.1-3.4-1.1-4.5l-4.1,9.9c.4.2,1,.4,1.7.4,3,0,3.5-3.1,3.5-5.8Z"/>
  <path class="st1" d="M198.8,16.7c0-1.6-1.1-2.4-2.5-2.4s-2.2.6-2.9,1.5l-.9-1.1c.7-.7,2.2-1.8,4.2-1.8s3.9,1.3,3.9,3.7-3.7,6.8-6.5,8.9h7.2v1.5h-9.3v-1.2c2.6-1.8,6.9-6.2,6.9-8.9Z"/>
  <path class="st1" d="M209.6,27c-3.6,0-4.8-2.7-4.8-6.6s2.8-7.6,7.3-7.6,1,0,1.5,0v1.5c-.5,0-1-.1-1.5-.1-3,0-5.4,1.6-5.6,5.2,1-.7,2.1-1.1,3.6-1.1,2.3,0,4.1,1.3,4.1,3.9s-1.7,4.7-4.6,4.7ZM209.5,19.9c-1.3,0-2.4.6-3.1,1.1,0,2.5.7,4.6,3.3,4.6s2.7-1.5,2.7-3-.9-2.7-2.9-2.7Z"/>
</svg>