<?xml version="1.0" encoding="UTF-8"?>
<svg id="Layer_1" data-name="Layer 1" xmlns="http://www.w3.org/2000/svg" viewBox="0 0 197.97 42.1">
  <defs>
    <style>
      .cls-1 {
        fill: #0ca1a6;
      }

      .cls-2, .cls-3 {
        fill: #f26727;
      }

      .cls-4, .cls-5 {
        letter-spacing: .01em;
      }

      .cls-5 {
        font-family: TynineSansMonoStd-Reg, 'Typonine Sans Monospace Std';
      }

      .cls-5, .cls-3 {
        font-size: 21.11px;
      }

      .cls-5, .cls-6 {
        fill: #362a86;
      }

      .cls-7 {
        fill: #a5f2ee;
      }

      .cls-3 {
        font-family: TynineSansMonoStd-Bld, 'Typonine Sans Monospace Std';
      }

      .cls-8 {
        letter-spacing: .03em;
      }

      .cls-9 {
        fill: #7fcbcd;
      }

      .cls-10 {
        fill: #00929f;
      }
    </style>
  </defs>
  <g>
    <rect class="cls-9" x="19.57" y="14.45" width="4.2" height="13.1"/>
    <rect class="cls-2" x="15.17" y="18.95" width="13.1" height="4.2"/>
    <rect class="cls-1" x="56.07" y="18.95" width="13.1" height="4.2"/>
    <path class="cls-9" d="M63.17,33.95c-.7,0-1.5-.1-2.2-.2-9.1-1.3-14.4-10.5-15.4-12.4l1.4-.7c.6,1.1,5.7,10.3,14.2,11.6.7.1,1.3.1,2,.1v1.6Z"/>
    <path class="cls-2" d="M56.07,10.85l-.3-.6c-6,3.3-9.5,9.8-10.1,11.1l-.6,1.3-.7-.3-.3.6,2.4,1.1,1.1-2.4c.6-1.2,5.5-9.7,13.3-11.2l-.2-1.3c-1.6.3-3.2.9-4.6,1.7Z"/>
    <path class="cls-7" d="M28.87,10.15l.2-.3c-1.7-.9-3.5-1.5-5.3-1.8-.7-.1-1.5-.1-2.2-.1-5.9,0-11.1,3.5-13.1,8.8l1.9.7c1.7-4.5,6.2-7.5,11.2-7.5.6,0,1.3,0,1.9.1,3.4.5,6.7,2.4,9.7,5.5l1.1-1.1c-1.4-1.5-3.3-3.1-5.4-4.3Z"/>
    <path class="cls-9" d="M15.07,33.75c-5-2.4-8.3-7.3-8.3-12.7,0-2.7.8-5.3,2.3-7.6.6-.9,1.2-1.7,2-2.4l.9,1c-.7.7-1.3,1.4-1.8,2.2-1.4,2-2.1,4.4-2.1,6.8,0,4.9,2.9,9.3,7.6,11.5l-.6,1.2Z"/>
    <path class="cls-1" d="M39.77,22.75l-.6-1.4c-.1-.1-.1-.2-.2-.4-1,1.9-6.4,11.4-15.2,12.6-.7.1-1.5.3-2.2.3-2.1,0-4-.4-5.9-1.3l-.7,1.2c2,1,4.2,1.4,6.5,1.4.8,0,1.6-.1,2.4-.2,8.6-1.1,14-8.8,15.9-12.2h0Z"/>
    <path class="cls-9" d="M41.57,29.25c-1.7,2.3-3.6,4.4-5.7,6l.5.6c2-1.6,3.9-3.6,5.6-5.9,3.5,4.8,9.4,10.5,17.8,11.7l.2-1.4c-8.7-1.2-14.5-7.4-17.9-12.6-.1-.2-.5,1.6-.5,1.6Z"/>
    <path class="cls-6" d="M40.47,22.45l-.7.3-.6-1.4c-.4-.9-2.1-3.9-4.8-6.8l-1.1,1.1c2.4,2.5,3.8,5,4.3,5.9l2,3.6,1.7-1-.8-1.7Z"/>
    <path class="cls-1" d="M44.87,24.35l-4.5-2.2,1.1-2.3c.7-1.5,3.3-6.6,8-10.7l1.9-1.7,3.3,3.8-1.9,1.8c-4,3.5-6.3,8.2-6.8,9l-1.1,2.3Z"/>
    <path class="cls-2" d="M11.97,12.05l-.9-1c2.8-2.6,6.5-4.1,10.5-4.1.8,0,1.6.1,2.3.2,1.9.3,3.8.9,5.6,1.9l-.7,1.2c-1.7-.9-3.4-1.5-5.1-1.7-.7-.1-1.4-.2-2.2-.2-3.5,0-6.9,1.3-9.5,3.7Z"/>
    <path class="cls-6" d="M2.67,21.05h-.9c0-5.1,2.1-9.9,5.9-13.5l.6.6c-3.7,3.4-5.6,8-5.6,12.9Z"/>
    <path class="cls-6" d="M35.67,6.75c-3.4-2.7-7.1-4.3-11-4.9-1-.1-2.1-.2-3.1-.2-4.1,0-8,1.1-11.3,3.3l-.6-.9c3.5-2.3,7.6-3.5,11.9-3.5,1.1,0,2.2.1,3.2.2,4.1.6,8,2.3,11.5,5.1l-.6.9Z"/>
    <path class="cls-9" d="M45.97,14.35l-1.6-1.2c3.1-4.1,8.4-9.1,15.9-10.2,1-.1,2-.2,2.9-.2,2.5,0,5,.5,7.3,1.4l-.7,1.8c-2.1-.8-4.3-1.2-6.6-1.2-.9,0-1.8.1-2.7.2-6.8.9-11.6,5.6-14.5,9.4Z"/>
    <path class="cls-6" d="M42.87,17.55l-2.2-.9.6-1.6.1-.1c2.8-4.4,9-12.1,18.6-13.5,1-.1,2.1-.2,3.2-.2v2.3c-.9,0-1.9.1-2.8.2-8.3,1.2-13.8,7.4-16.9,12.4l-.6,1.4Z"/>
    <path class="cls-2" d="M77.37,7.25c-3.8-3.6-8.8-5.6-14.2-5.6-1,0-2.1.1-3.1.2l-.2-1.1c1.1-.2,2.2-.2,3.2-.2,5.7,0,11,2.1,14.9,5.9l-.6.8Z"/>
    <path class="cls-6" d="M77.37,34.55c-3.8,3.6-8.8,5.6-14.2,5.6-1,0-2.1-.1-3.1-.2l-.2,1.1c1.1.2,2.2.2,3.2.2,5.7,0,11-2.1,14.9-5.9l-.6-.8Z"/>
    <path class="cls-7" d="M24.37,38.35l-.4-2.8c11.4-1.6,17-14.8,17.1-15,.3-.6,6.3-14.9,19.3-16.7l.4,2.8c-11.4,1.6-17,14.8-17.1,15-.2.6-6.3,14.8-19.3,16.7Z"/>
    <path class="cls-1" d="M12.47,35.45l1.2-2.1c3.1,1.8,6.6,2.4,10.2,1.9l.4,2.5c2.4-.3,4.7-1.2,6.9-2.4l-2.1-3.6c-1.7,1-3.6,1.6-5.4,1.9-.7.1-1.4.2-2.1.2-3.6,0-7-1.3-9.5-3.7-1.2-1.2-2.2-2.5-2.8-4l-3.6,1.6c.9,2,2.1,3.7,3.7,5.3l-.2-.1c1,1,2.1,1.8,3.3,2.5Z"/>
    <path class="cls-6" d="M21.57,38.95c-5,0-9.6-1.8-13.2-5.2l.8-.8c3.3,3.1,7.7,4.9,12.4,4.9.9,0,1.8-.1,2.7-.2,9.4-1.3,15-9.3,17.6-13.9l.6-1.5,1,.4-.7,1.6c-2.6,4.8-8.6,13.1-18.4,14.5-.9.1-1.8.2-2.8.2Z"/>
    <path class="cls-1" d="M21.57,42.05c-5.8,0-11.2-2.2-15.3-6.1l1.5-1.5c3.7,3.5,8.6,5.5,13.8,5.5,1,0,2-.1,3-.2,3.9-.6,7.6-2.2,10.9-4.9l1.3,1.6c-3.6,3-7.7,4.8-11.9,5.4-1.1.1-2.2.2-3.3.2Z"/>
    <path class="cls-7" d="M24.67,40.35l-.3-1.8c8.4-1.2,14-7.5,17.2-12.5.1-.2,1-1.7,1.3-2.3l1.6.8c-.4.7-1.3,2.3-1.3,2.4h0c-3.4,5.5-9.4,12.1-18.5,13.4Z"/>
    <path class="cls-1" d="M12.57,35.35c-5.2-3-8.4-8.4-8.4-14.3,0-.9.1-1.7.2-2.6l1.3.2c-.1.8-.2,1.6-.2,2.4,0,5.4,2.9,10.4,7.7,13.2l-.6,1.1Z"/>
    <path class="cls-7" d="M6.27,18.75l-2.5-.3c.7-4.5,3.2-8.5,7-11.2,3.9-2.8,8.7-3.9,13.6-3.2,1.1.2,2.2.4,3.3.8l-.8,2.4c-.9-.3-1.9-.5-2.8-.7-8.7-1.3-16.5,4.1-17.8,12.2Z"/>
    <path class="cls-9" d="M55.47,31.95l-.2.3c1.7.9,3.5,1.5,5.3,1.8.7.1,1.5.2,2.2.2,5.9,0,11.1-3.5,13.1-8.8l-1.9-.7c-1.7,4.5-6.1,7.5-11.2,7.5-.6,0-1.3,0-1.9-.1-3.4-.5-6.7-2.4-9.7-5.5l-1.1,1.1c1.4,1.4,3.3,3,5.4,4.2Z"/>
    <path class="cls-7" d="M72.37,30.05l.9,1c-2.8,2.7-6.5,4.1-10.5,4.1-.8,0-1.6-.1-2.3-.2-1.9-.3-3.8-.9-5.6-1.9l.7-1.2c1.7.9,3.4,1.5,5.1,1.7.7.1,1.4.2,2.2.2,3.6.1,7-1.3,9.5-3.7Z"/>
    <path class="cls-2" d="M81.77,21.05h.8c0,5.1-2.1,9.9-5.8,13.5l-.6-.6c3.6-3.4,5.6-8,5.6-12.9Z"/>
    <path class="cls-1" d="M78.07,23.35l2.5.4c-.7,4.5-3.2,8.5-7,11.2-3.9,2.8-8.7,3.9-13.6,3.2-1.1-.2-2.2-.4-3.2-.8l.8-2.4c.9.3,1.9.5,2.8.7,8.6,1.2,16.4-4.2,17.7-12.3Z"/>
    <path class="cls-7" d="M21.57,40.65c-5.4,0-10.5-2-14.3-5.7-3.5-3.3-5.6-7.7-5.9-12.4h0v-1.4l1.8-.1v1.4c.3,4.3,2.2,8.2,5.4,11.3,3.5,3.3,8.1,5.2,13,5.2.9,0,1.9-.1,2.9-.2l.3,1.8c-1.1,0-2.2.1-3.2.1Z"/>
    <path class="cls-2" d="M29.97,34.25l-.6-1,.5-.3c6.4-3.7,10-10.8,10.7-12.1l.2-.5,1,.5-.2.5c-.7,1.4-4.4,8.8-11.2,12.6l-.4.3Z"/>
    <path class="cls-9" d="M44.17,20.35c-.1-.1-.5-1.1-1.2-2.5l.3-.2c-2.7-4.9-8.7-13.3-18.8-14.7-1-.1-2-.2-2.9-.2v1.9c.9,0,1.8.1,2.7.2,1.1.2,2.1.4,3.1.7l-.7,2.2c9.3,3,13.9,13.9,14,14,.3.6,6.4,15.1,19.7,17l.5-3.9c-11.1-1.5-16.6-14.4-16.7-14.5Z"/>
    <path class="cls-1" d="M84.57,22.95l-1.7-.2c.1-.6.1-1.2.1-1.8,0-5.2-2.1-10-5.8-13.6l1.2-1.2c4.1,3.9,6.4,9.2,6.4,14.8-.1.7-.1,1.4-.2,2Z"/>
    <path class="cls-6" d="M78.87,23.95l-1.1-.2c.2-.9.3-1.8.3-2.7,0-3.8-1.5-7.3-4.3-10l.8-.8c3,2.9,4.7,6.7,4.7,10.8-.1,1-.2,1.9-.4,2.9Z"/>
    <path class="cls-1" d="M76.97,24.25l-2.5-.6c.2-.8.3-1.7.3-2.5,0-6-5.2-10.8-11.5-10.8-.6,0-1.3,0-1.9.1-.2,0-.3.1-.5.1l-.5-2.6c.2,0,.4-.1.6-.1.8-.1,1.5-.2,2.2-.2,7.8,0,14.1,6,14.1,13.4.1,1.1-.1,2.1-.3,3.2Z"/>
    <path class="cls-2" d="M63.17,39.55c-1,0-2-.1-3-.2-4.4-.6-8.5-2.7-12.2-6.1l1.6-1.7c3.3,3.1,7,4.9,10.9,5.5,1.1.1,2.1.2,3.2.2l.1,2.3h-.6Z"/>
    <path class="cls-1" d="M80.83,21.08h-1.56c0-4.29-1.89-8.4-5.2-11.27-3.55-3.08-8.36-4.45-13.21-3.76l-.22-1.54c5.3-.76,10.56.75,14.46,4.12,3.65,3.16,5.74,7.7,5.74,12.44Z"/>
    <path class="cls-2" d="M5.97,36.35c-2.3-2.2-4-4.8-5.1-7.6l2.9-1.1c1,2.4,2.4,4.6,4.4,6.5l-2.2,2.2Z"/>
    <path class="cls-7" d="M43.47,14.05l-2.2-1.5C44.77,7.55,50.87,1.35,59.77.05l.4,2.7c-8,1.1-13.5,6.7-16.7,11.3Z"/>
    <path class="cls-9" d="M42.87,15.15l-1.1-1.4c-1.9-2.6-4-4.9-6.2-6.7l1-1.3c2.4,1.9,4.6,4.3,6.5,7l1.1,1.3-1.3,1.1Z"/>
    <path class="cls-9" d="M51.47,11.65l-.9-1c3.1-2.7,6.5-4.4,10-4.9.8-.1,1.7-.2,2.5-.2,4.3,0,8.4,1.6,11.4,4.5l-.9.9c-2.7-2.5-6.4-4-10.4-4-.8,0-1.6.1-2.3.2-3.3.5-6.5,2-9.4,4.5Z"/>
    <path class="cls-2" d="M75.87,17.55c-.6-2-1.7-3.8-3.3-5.3-2-1.9-4.6-3.2-7.4-3.6l.3-1.8c3.2.5,6.1,1.9,8.4,4,1.8,1.7,3.1,3.8,3.8,6l-1.8.7Z"/>
    <path class="cls-6" d="M64.27,35.15c-1.1.1-2.3,0-3.4-.1-2.6-.4-5.1-1.4-7.5-3.1l-.7,1c2.5,1.8,5.2,2.9,8.1,3.3.8.1,1.7.2,2.5.2h1v-1.3Z"/>
  </g>
  <g>
    <path class="cls-10" d="M92.42,18.57l4.79-15.26h4.25l4.86,15.26h-4.01l-.85-3.12h-4.39l-.77,3.12h-3.87ZM99.18,6.93l-1.38,5.59h2.89l-1.5-5.59Z"/>
    <path class="cls-10" d="M108.73,3.31h6.15c4.22,0,5.82,2.16,5.82,5.09,0,2.09-.84,3.68-2.51,4.58l2.98,5.59h-4.46l-2.3-4.83h-1.9v4.83h-3.78V3.31ZM116.69,8.43c0-1.36-.49-2.04-2.25-2.04h-1.92v4.32h2c1.31,0,2.18-.59,2.18-2.28Z"/>
    <path class="cls-10" d="M123.76,3.31h5c5.7,0,7.6,2.7,7.6,7.49,0,3.61-1.1,7.77-7.58,7.77h-5.02V3.31ZM127.53,6.39v9.06h1.43c3.12,0,3.36-1.9,3.36-4.48,0-2.98-.31-4.58-3.68-4.58h-1.1Z"/>
    <path class="cls-10" d="M147.53,3.31h3.64v10.02c0,4.51-3.45,5.47-6.15,5.47s-5.94-.87-5.94-5.49V3.31h3.78v9.29c0,2.53.89,3.12,2.32,3.12,1.71,0,2.35-.77,2.35-3.1V3.31Z"/>
    <path class="cls-10" d="M154.55,15.45h3.94V6.43h-3.94v-3.12h11.69v3.12h-3.97v9.01h3.97v3.12h-11.69v-3.12Z"/>
    <path class="cls-10" d="M172.93,18.57h-3.57V3.31h4.11l4.95,9.15V3.31h3.52v15.26h-3.82l-5.21-9.76.02,9.76Z"/>
    <path class="cls-10" d="M197.38,10.94c0,4.41-1.62,7.86-6.52,7.86-4.39,0-6.41-2.65-6.41-7.7,0-4.6,1.76-8,6.38-8,4.34,0,6.55,2.02,6.55,7.84ZM193.37,10.94c0-3.73-.31-4.76-2.53-4.76-2.02,0-2.37,1.2-2.37,4.93,0,3.07.21,4.62,2.39,4.62s2.51-1.27,2.51-4.79Z"/>
    <text class="cls-3" transform="translate(92.37 38.73)"><tspan class="cls-8" x="0" y="0">D</tspan><tspan class="cls-4" x="13.21" y="0">AYS</tspan></text>
    <text class="cls-5" transform="translate(147.31 39.05)"><tspan x="0" y="0">2026</tspan></text>
  </g>
</svg>