<svg version="1.2" xmlns="http://www.w3.org/2000/svg" viewBox="0 0 800 234" width="800" height="234">
	<title>Edge Impulse Qualcomm logo (main)</title>
	<style>
		tspan { white-space:pre } 
		.s0 { fill: #ffffff } 
		.s1 { fill: #feba06 } 
		.s2 { fill: #a3d008 } 
		.s3 { fill: #f8562c } 
		.s4 { fill: #39bfce } 
		.s5 { fill: #000000 } 
		.s6 { fill: #2a2aea } 
		.s7 { fill: none;stroke: #e6e6e6;stroke-miterlimit:10;stroke-width: 2 } 
		.s8 { fill: #808080 } 
		.t9 { font-size: 21px;fill: #2a2aea;font-family: "Qualcomm Next" } 
		.s10 { fill: #e6e6e6 } 
	</style>
	<g id="Layer 1">
		<path id="&lt;Path&gt;" class="s0" d="m1800 234h-800v-234h800z"/>
		<g id="&lt;Group&gt;">
			<path id="&lt;Path&gt;" class="s1" d="m140.1 88.3c-5.5 0-10 4.5-10 10 0 5.5 4.5 9.9 10 9.9h33.1l-7.6-19.9h-25.5z"/>
			<path id="&lt;Path&gt;" class="s2" d="m63.7 108.2h48.5c5.5 0 10-4.4 10-9.9 0-5.5-4.5-10-10-10h-48.5c-5.5 0-10 4.5-10 10 0 5.5 4.5 9.9 10 9.9z"/>
			<path id="&lt;Path&gt;" class="s3" d="m178.3 122.8h-103.4c-2.6-3.1-6.5-5.1-10.8-5.1-7.9 0-14.2 6.3-14.2 14.1 0 7.9 6.3 14.2 14.2 14.2 4.3 0 8.2-2 10.8-5.1h110.3z"/>
			<path id="&lt;Path&gt;" class="s4" d="m153.4 55.3h-78.2c-2.6-3.2-6.6-5.3-11.1-5.3-7.9 0-14.2 6.3-14.2 14.2 0 7.8 6.3 14.1 14.2 14.1 4.2 0 8-1.9 10.6-4.8h85.7z"/>
			<path id="&lt;Path&gt;" class="s5" d="m227.2 122.6h37.5v-9.6h-26.7v-10.4h23.2v-9.6h-23.2v-10h26.3v-9.6h-37.1z"/>
			<path id="&lt;Compound Path&gt;" fill-rule="evenodd" class="s5" d="m273.2 73.4h19.2c15.5 0 26.2 10.6 26.2 24.5v0.1c0 13.9-10.7 24.6-26.2 24.6h-19.2zm10.9 9.8v29.7h8.3c8.9 0 14.9-6 14.9-14.7v-0.2c0-8.7-6-14.8-14.9-14.8z"/>
			<path id="&lt;Path&gt;" class="s5" d="m350.9 123.5c9 0 15.9-3.6 21-7.8v-21.4h-21.4v9.3h10.9v7.1c-2.7 1.9-6.2 2.9-10.2 2.9-8.7 0-14.9-6.6-14.9-15.6v-0.1c0-8.4 6.3-15.4 14.1-15.4 5.7 0 9.1 1.9 12.9 5l6.8-8.2c-5.1-4.4-10.4-6.8-19.3-6.8-14.9 0-25.8 11.5-25.8 25.5v0.1c0 14.6 10.5 25.4 25.9 25.4z"/>
			<path id="&lt;Path&gt;" class="s5" d="m381.2 122.6h37.5v-9.6h-26.7v-10.4h23.2v-9.6h-23.2v-10h26.4v-9.6h-37.2z"/>
			<path id="&lt;Path&gt;" class="s5" d="m447.7 122.6h10.9v-49.2h-10.9z"/>
			<path id="&lt;Path&gt;" class="s5" d="m469.8 122.6h10.6v-31.9l13.7 20.8h0.3l13.9-21v32.1h10.7v-49.2h-11.6l-13 20.8-12.9-20.8h-11.7z"/>
			<path id="&lt;Compound Path&gt;" fill-rule="evenodd" class="s5" d="m529.8 73.4h20.1c11.7 0 18.8 6.9 18.8 17v0.1c0 11.4-8.8 17.3-19.9 17.3h-8.2v14.8h-10.8zm19.4 24.9c5.4 0 8.6-3.3 8.6-7.5v-0.1c0-4.9-3.4-7.5-8.8-7.5h-8.4v15.1z"/>
			<path id="&lt;Path&gt;" class="s5" d="m596.2 123.4c13.2 0 21.6-7.3 21.6-22.2v-27.8h-10.8v28.2c0 7.8-4 11.8-10.7 11.8-6.6 0-10.6-4.1-10.6-12.2v-27.8h-10.8v28.1c0 14.5 8.1 21.9 21.3 21.9z"/>
			<path id="&lt;Path&gt;" class="s5" d="m627.7 122.6h35.4v-9.8h-24.5v-39.4h-10.9z"/>
			<path id="&lt;Path&gt;" class="s5" d="m687.7 123.3c10.6 0 18.1-5.5 18.1-15.2v-0.2c0-8.6-5.6-12.2-15.6-14.8-8.5-2.1-10.7-3.2-10.7-6.4v-0.2c0-2.4 2.2-4.3 6.4-4.3 4.1 0 8.4 1.9 12.8 4.9l5.6-8.2c-5-4-11.1-6.2-18.3-6.2-10 0-17.2 5.9-17.2 14.8v0.2c0 9.7 6.4 12.5 16.3 15 8.2 2.1 9.9 3.5 9.9 6.3v0.1c0 2.9-2.7 4.7-7.1 4.7-5.6 0-10.3-2.4-14.7-6l-6.4 7.6c5.9 5.3 13.4 7.9 20.9 7.9z"/>
			<path id="&lt;Path&gt;" class="s5" d="m714.1 122.6h37.5v-9.6h-26.7v-10.4h23.2v-9.6h-23.2v-10h26.3v-9.6h-37.1z"/>
		</g>
		<g id="&lt;Group&gt;">
			<path id="&lt;Compound Path&gt;" fill-rule="evenodd" class="s6" d="m237.5 163.6c3.1 0 5.6 1.6 6.7 3.7v-2.3c0-0.5 0.4-0.8 0.8-0.8h2.5c0.4 0 0.7 0.3 0.7 0.8v18.3c0 0.4-0.3 0.7-0.7 0.7h-2.5c-0.4 0-0.8-0.3-0.8-0.7v-2.4c-1.1 2.1-3.6 3.7-6.8 3.7-5.3 0-9.9-4.3-9.9-10.5 0-6.3 4.6-10.5 10-10.5zm0.4 17.3c3.7 0 6.4-3.1 6.4-6.8 0-3.8-2.7-6.7-6.4-6.7-3.7 0-6.3 2.9-6.3 6.7 0 3.7 2.6 6.8 6.3 6.8z"/>
			<path id="&lt;Compound Path&gt;" fill-rule="evenodd" class="s6" d="m287.3 189.1h-2.3c-0.6 0-0.9-0.3-1.1-0.8l-1.8-4.7q-2.5 1-5.4 1c-8.4 0-15.1-6.5-15.1-15.3 0-8.7 6.7-15.2 15.1-15.2 8.4 0 15.2 6.5 15.2 15.2 0 5.3-2.5 9.7-6.2 12.4l2.4 6.1c0.3 0.8-0.2 1.3-0.8 1.3zm-10.6-31.2c-6.3 0-10.8 5-10.8 11.4 0 6.5 4.5 11.4 10.8 11.4q2.2 0 4-0.7l-2.5-6.5c-0.3-0.8 0.2-1.2 0.8-1.2h2.1c0.8 0 1.1 0.3 1.3 0.8l1.8 4.7c2.1-2.1 3.3-5.1 3.3-8.5 0-6.4-4.5-11.4-10.8-11.4z"/>
			<path id="&lt;Compound Path&gt;" class="s6" d="m299.7 175.4c0 3.5 1.9 5.7 5.4 5.7 3.5 0 5.6-2.4 5.6-5.7v-10.4c0-0.5 0.4-0.8 0.8-0.8h2.5c0.4 0 0.8 0.3 0.8 0.8v18.3c0 0.4-0.4 0.7-0.8 0.7h-2.5c-0.4 0-0.8-0.3-0.8-0.7v-2.2c-1.2 2-3.4 3.5-6.7 3.5-5.2 0-8.3-3.4-8.3-8.5v-11.1c0-0.5 0.4-0.8 0.8-0.8h2.5c0.4 0 0.7 0.3 0.7 0.8z"/>
			<path id="&lt;Compound Path&gt;" fill-rule="evenodd" class="s6" d="m328.3 163.6c3.1 0 5.7 1.6 6.8 3.7v-2.3c0-0.5 0.4-0.8 0.8-0.8h2.5c0.4 0 0.7 0.3 0.7 0.8v18.3c0 0.4-0.3 0.7-0.7 0.7h-2.5c-0.4 0-0.8-0.3-0.8-0.7v-2.4c-1.1 2.1-3.7 3.7-6.8 3.7-5.3 0-10-4.3-10-10.5 0-6.3 4.7-10.5 10-10.5zm0.5 17.3c3.6 0 6.3-3.1 6.3-6.8 0-3.8-2.7-6.7-6.3-6.7-3.7 0-6.3 2.9-6.3 6.7 0 3.7 2.6 6.8 6.3 6.8z"/>
			<path id="&lt;Compound Path&gt;" class="s6" d="m343.8 179.1v-23.7c0-0.4 0.4-0.8 0.8-0.8h2.5c0.4 0 0.7 0.4 0.7 0.8v23.1c0 1.3 0.7 2.1 2.1 2.1h1.1c0.4 0 0.8 0.3 0.8 0.8v1.7c0 0.7-0.6 0.9-1 0.9h-2.1c-3.1 0-4.9-1.6-4.9-4.9z"/>
			<path id="&lt;Compound Path&gt;" class="s6" d="m363 184.6c-5.9 0-10.4-4.5-10.4-10.5 0-6 4.5-10.5 10.4-10.5 3.9 0 7.2 2 8.8 4.9 0.3 0.6 0.1 1-0.3 1.3l-1.6 1c-0.5 0.4-1 0.2-1.3-0.3-1.4-2-3.1-3.1-5.6-3.1-3.7 0-6.3 3-6.3 6.7 0 3.7 2.6 6.7 6.3 6.7 2.5 0 4.2-1.1 5.6-3.1 0.3-0.5 0.8-0.7 1.3-0.3l1.6 1c0.4 0.3 0.6 0.7 0.3 1.3-1.6 2.9-4.9 4.9-8.8 4.9z"/>
			<path id="&lt;Compound Path&gt;" fill-rule="evenodd" class="s6" d="m384.3 163.6c5.8 0 10.4 4.6 10.4 10.5 0 6-4.6 10.5-10.4 10.5-5.8 0-10.4-4.5-10.4-10.5 0-5.9 4.6-10.5 10.4-10.5zm0 17.2c3.7 0 6.4-3 6.4-6.7 0-3.8-2.7-6.7-6.4-6.7-3.7 0-6.3 2.9-6.3 6.7 0 3.7 2.6 6.7 6.3 6.7z"/>
			<path id="&lt;Compound Path&gt;" class="s6" d="m402.4 183.3c0 0.4-0.4 0.7-0.8 0.7h-2.5c-0.4 0-0.8-0.3-0.8-0.7v-18.3c0-0.5 0.4-0.8 0.8-0.8h2.5c0.4 0 0.8 0.3 0.8 0.8v2.1c1.1-2 3.6-3.5 6.5-3.5 3.3 0 5.7 1.7 6.8 4.1 1.6-2.8 4.4-4.1 7.3-4.1 5.6 0 8.3 3.9 8.3 8.5v11.2c0 0.4-0.3 0.7-0.8 0.7h-2.4c-0.4 0-0.8-0.3-0.8-0.7v-10.3c0-3.2-1.6-5.7-5.1-5.7-3.4 0-5.4 2.5-5.4 5.7v10.3c0 0.4-0.3 0.7-0.7 0.7h-2.5c-0.4 0-0.8-0.3-0.8-0.7v-10.3c0-3.2-1.6-5.7-5-5.7-3.5 0-5.4 2.5-5.4 5.7z"/>
			<path id="&lt;Compound Path&gt;" class="s6" d="m440 183.3c0 0.4-0.4 0.7-0.8 0.7h-2.5c-0.4 0-0.8-0.3-0.8-0.7v-18.3c0-0.5 0.4-0.8 0.8-0.8h2.5c0.4 0 0.8 0.3 0.8 0.8v2.1c1.1-2 3.6-3.5 6.6-3.5 3.2 0 5.6 1.7 6.7 4.1 1.6-2.8 4.4-4.1 7.3-4.1 5.6 0 8.3 3.9 8.3 8.5v11.2c0 0.4-0.3 0.7-0.8 0.7h-2.4c-0.4 0-0.8-0.3-0.8-0.7v-10.3c0-3.2-1.6-5.7-5.1-5.7-3.4 0-5.4 2.5-5.4 5.7v10.3c0 0.4-0.3 0.7-0.7 0.7h-2.5c-0.4 0-0.8-0.3-0.8-0.7v-10.3c0-3.2-1.6-5.7-5-5.7-3.5 0-5.4 2.5-5.4 5.7z"/>
			<path id="&lt;Compound Path&gt;" class="s6" d="m492.4 184.6c-5.9 0-10.4-4.5-10.4-10.5 0-6 4.5-10.5 10.4-10.5 3.9 0 7.2 2 8.8 4.9 0.3 0.6 0.1 1-0.3 1.3l-1.6 1c-0.5 0.4-1 0.2-1.3-0.3-1.4-2-3.1-3.1-5.6-3.1-3.7 0-6.3 3-6.3 6.7 0 3.7 2.6 6.7 6.3 6.7 2.5 0 4.2-1.1 5.6-3.1 0.3-0.5 0.8-0.7 1.3-0.3l1.6 1c0.4 0.3 0.6 0.7 0.3 1.3-1.6 2.9-4.9 4.9-8.8 4.9z"/>
			<path id="&lt;Compound Path&gt;" fill-rule="evenodd" class="s6" d="m513.7 163.6c5.8 0 10.4 4.6 10.4 10.5 0 6-4.6 10.5-10.4 10.5-5.8 0-10.4-4.5-10.4-10.5 0-5.9 4.6-10.5 10.4-10.5zm0 17.2c3.7 0 6.4-3 6.4-6.7 0-3.8-2.7-6.7-6.4-6.7-3.7 0-6.3 2.9-6.3 6.7 0 3.7 2.6 6.7 6.3 6.7z"/>
			<path id="&lt;Compound Path&gt;" class="s6" d="m531.8 183.3c0 0.4-0.4 0.7-0.8 0.7h-2.5c-0.4 0-0.8-0.3-0.8-0.7v-18.3c0-0.5 0.4-0.8 0.8-0.8h2.5c0.4 0 0.8 0.3 0.8 0.8v2.1c1.1-2 3.6-3.5 6.5-3.5 3.3 0 5.7 1.7 6.8 4.1 1.6-2.8 4.4-4.1 7.3-4.1 5.6 0 8.3 3.9 8.3 8.5v11.2c0 0.4-0.4 0.7-0.8 0.7h-2.4c-0.4 0-0.8-0.3-0.8-0.7v-10.3c0-3.2-1.6-5.7-5.1-5.7-3.4 0-5.4 2.5-5.4 5.7v10.3c0 0.4-0.3 0.7-0.7 0.7h-2.5c-0.4 0-0.8-0.3-0.8-0.7v-10.3c0-3.2-1.6-5.7-5-5.7-3.5 0-5.4 2.5-5.4 5.7z"/>
			<path id="&lt;Compound Path&gt;" fill-rule="evenodd" class="s6" d="m576.2 163.6c5.4 0 9.9 4.3 9.9 10.5 0 6.2-4.5 10.5-9.9 10.5-2.9 0-5.6-1.4-6.8-3.6v11.1c0 0.4-0.4 0.7-0.8 0.7h-2.5c-0.4 0-0.8-0.3-0.8-0.7v-27.1c0-0.5 0.4-0.8 0.8-0.8h2.5c0.4 0 0.7 0.3 0.7 0.8v2.3c1.2-2.1 3.8-3.7 6.9-3.7zm-0.5 17.3c3.6 0 6.3-3 6.3-6.8 0-3.7-2.7-6.7-6.3-6.7-3.7 0-6.4 3-6.4 6.7 0 3.8 2.7 6.8 6.4 6.8z"/>
			<path id="&lt;Compound Path&gt;" fill-rule="evenodd" class="s6" d="m598.6 163.6c3.1 0 5.7 1.6 6.8 3.7v-2.3c0-0.5 0.4-0.8 0.8-0.8h2.5c0.4 0 0.7 0.3 0.7 0.8v18.3c0 0.4-0.3 0.7-0.7 0.7h-2.5c-0.4 0-0.8-0.3-0.8-0.7v-2.4c-1.1 2.1-3.7 3.7-6.8 3.7-5.4 0-10-4.3-10-10.5 0-6.3 4.6-10.5 10-10.5zm0.5 17.3c3.6 0 6.3-3.1 6.3-6.8 0-3.8-2.7-6.7-6.3-6.7-3.7 0-6.4 2.9-6.4 6.7 0 3.7 2.7 6.8 6.4 6.8z"/>
			<path id="&lt;Compound Path&gt;" class="s6" d="m629.6 173.3c0-3.7-2-6-5.6-6-3.5 0-5.8 2.5-5.8 6v10c0 0.4-0.4 0.7-0.8 0.7h-2.5c-0.4 0-0.8-0.3-0.8-0.7v-18.3c0-0.5 0.4-0.8 0.8-0.8h2.5c0.4 0 0.8 0.3 0.8 0.8v2.1c1.1-1.9 3.6-3.5 6.9-3.5 5.3 0 8.5 3.7 8.5 8.7v11c0 0.4-0.3 0.7-0.8 0.7h-2.4c-0.4 0-0.8-0.3-0.8-0.7z"/>
			<path id="&lt;Compound Path&gt;" class="s6" d="m635 191.5c-0.3-0.3-0.4-0.8 0-1.3l0.9-1.2c0.5-0.5 1-0.4 1.5-0.1 0.8 0.7 1.5 1 2.6 1 1.6 0 2.6-1.1 3.1-2.4l1.4-3.5h-1.1c-0.5 0-0.7-0.2-0.9-0.7l-7-18.1c-0.2-0.5 0-1 0.7-1h2.9c0.5 0 0.7 0.4 0.9 0.8l5.8 15.7 5.8-15.7c0.1-0.4 0.4-0.8 0.9-0.8h2.7c0.6 0 0.8 0.5 0.6 1l-8.9 23.1c-1.1 2.9-3.2 5.2-6.8 5.2-2.2 0-3.9-0.8-5.1-2z"/>
		</g>
		<g id="&lt;Group&gt;">
		</g>
		<path id="&lt;Path&gt;" class="s7" d="m1750.9 184h-701.8v-134h701.8z"/>
		<g id="&lt;Group&gt;">
			<g id="&lt;Group&gt;">
				<path id="&lt;Compound Path&gt;" class="s8" d="m1769 108.6h-2.1c-0.5 0-0.5-0.4-0.4-0.6l6.7-9.4-6.1-9c-0.2-0.3 0-0.6 0.3-0.6h2.1c0.4 0 0.6 0.2 0.7 0.4l4.9 7.1 4.8-7.1c0.2-0.2 0.4-0.4 0.8-0.4h2c0.4 0 0.5 0.3 0.3 0.6l-6.2 8.8 6.7 9.6c0.2 0.2 0 0.6-0.3 0.6h-2.3c-0.4 0-0.6-0.2-0.7-0.5l-5.2-7.4-5.2 7.5c-0.2 0.2-0.4 0.4-0.8 0.4z"/>
			</g>
			<path id="&lt;Path&gt;" class="s7" d="m1619 73.8h181"/>
			<path id="&lt;Path&gt;" class="s7" d="m1619 123h181"/>
		</g>
		<g id="&lt;Group&gt;">
			<path id="&lt;Path&gt;" class="s1" d="m1140.1 88.3c-5.5 0-10 4.5-10 10 0 5.5 4.5 9.9 10 9.9h33.1l-7.6-19.9h-25.5z"/>
			<path id="&lt;Path&gt;" class="s2" d="m1063.7 108.2h48.5c5.5 0 10-4.4 10-9.9 0-5.5-4.5-10-10-10h-48.5c-5.5 0-10 4.5-10 10 0 5.5 4.5 9.9 10 9.9z"/>
			<path id="&lt;Path&gt;" class="s3" d="m1178.3 122.8h-103.4c-2.6-3.1-6.5-5.1-10.8-5.1-7.9 0-14.2 6.3-14.2 14.1 0 7.9 6.3 14.2 14.2 14.2 4.3 0 8.2-2 10.8-5.1h110.3z"/>
			<path id="&lt;Path&gt;" class="s4" d="m1153.4 55.3h-78.2c-2.6-3.2-6.6-5.3-11.1-5.3-7.9 0-14.2 6.3-14.2 14.2 0 7.8 6.3 14.1 14.2 14.1 4.2 0 8-1.9 10.6-4.8h85.7z"/>
			<path id="&lt;Path&gt;" class="s5" d="m1227.2 122.6h37.5v-9.6h-26.7v-10.4h23.2v-9.6h-23.2v-10h26.3v-9.6h-37.1z"/>
			<path id="&lt;Compound Path&gt;" fill-rule="evenodd" class="s5" d="m1273.2 73.4h19.2c15.5 0 26.2 10.6 26.2 24.5v0.1c0 13.9-10.7 24.6-26.2 24.6h-19.2zm10.9 9.8v29.7h8.3c8.9 0 14.9-6 14.9-14.7v-0.2c0-8.7-6-14.8-14.9-14.8z"/>
			<path id="&lt;Path&gt;" class="s5" d="m1350.9 123.5c9 0 15.9-3.6 21-7.8v-21.4h-21.4v9.3h10.9v7.1c-2.7 1.9-6.2 2.9-10.2 2.9-8.7 0-14.9-6.6-14.9-15.6v-0.1c0-8.4 6.3-15.4 14.1-15.4 5.7 0 9.1 1.9 12.9 5l6.8-8.2c-5.1-4.4-10.4-6.8-19.3-6.8-14.9 0-25.8 11.5-25.8 25.5v0.1c0 14.6 10.5 25.4 25.9 25.4z"/>
			<path id="&lt;Path&gt;" class="s5" d="m1381.2 122.6h37.5v-9.6h-26.7v-10.4h23.2v-9.6h-23.2v-10h26.4v-9.6h-37.2z"/>
			<path id="&lt;Path&gt;" class="s5" d="m1447.7 122.6h10.9v-49.2h-10.9z"/>
			<path id="&lt;Path&gt;" class="s5" d="m1469.8 122.6h10.6v-31.9l13.7 20.8h0.3l13.9-21v32.1h10.7v-49.2h-11.6l-13 20.8-12.9-20.8h-11.7z"/>
			<path id="&lt;Compound Path&gt;" fill-rule="evenodd" class="s5" d="m1529.8 73.4h20.1c11.7 0 18.8 6.9 18.8 17v0.1c0 11.4-8.8 17.3-19.9 17.3h-8.2v14.8h-10.8zm19.4 24.9c5.4 0 8.6-3.3 8.6-7.5v-0.1c0-4.9-3.4-7.5-8.8-7.5h-8.4v15.1z"/>
			<path id="&lt;Path&gt;" class="s5" d="m1596.2 123.4c13.2 0 21.6-7.3 21.6-22.2v-27.8h-10.8v28.2c0 7.8-4 11.8-10.7 11.8-6.6 0-10.6-4.1-10.6-12.2v-27.8h-10.8v28.1c0 14.5 8.1 21.9 21.3 21.9z"/>
			<path id="&lt;Path&gt;" class="s5" d="m1627.7 122.6h35.4v-9.8h-24.5v-39.4h-10.9z"/>
			<path id="&lt;Path&gt;" class="s5" d="m1687.7 123.3c10.6 0 18.1-5.5 18.1-15.2v-0.2c0-8.6-5.6-12.2-15.6-14.8-8.5-2.1-10.7-3.2-10.7-6.4v-0.2c0-2.4 2.2-4.3 6.4-4.3 4.1 0 8.4 1.9 12.8 4.9l5.6-8.2c-5-4-11.1-6.2-18.3-6.2-10 0-17.2 5.9-17.2 14.8v0.2c0 9.7 6.4 12.5 16.3 15 8.2 2.1 9.9 3.5 9.9 6.3v0.1c0 2.9-2.7 4.7-7.1 4.7-5.6 0-10.3-2.4-14.7-6l-6.4 7.6c5.9 5.3 13.4 7.9 20.9 7.9z"/>
			<path id="&lt;Path&gt;" class="s5" d="m1714.1 122.6h37.5v-9.6h-26.7v-10.4h23.2v-9.6h-23.2v-10h26.3v-9.6h-37.1z"/>
		</g>
		<text id="a Qualcomm company
" style="transform: matrix(2,0,0,2,1226.202,184.016)" >
			<tspan x="0" y="0" class="t9">a Qualcomm company
</tspan>
		</text>
		<g id="&lt;Group&gt;">
			<path id="&lt;Path&gt;" class="s10" d="m1800 234h-50v-50h50z"/>
			<path id="&lt;Path&gt;" class="s10" d="m1800 50h-50v-50h50z"/>
			<path id="&lt;Path&gt;" class="s10" d="m1049.9 50h-50v-50h50z"/>
			<path id="&lt;Path&gt;" class="s10" d="m1049.9 234h-50v-50h50z"/>
		</g>
		<path id="&lt;Compound Path&gt;" fill-rule="evenodd" class="s10" d="m1287.2 157.9h-2.2c-0.7 0-1-0.2-1.2-0.7l-1.8-4.7q-2.5 0.9-5.4 1c-8.4 0-15.1-6.6-15.1-15.3 0-8.7 6.7-15.2 15.1-15.2 8.4 0 15.2 6.5 15.2 15.2 0 5.3-2.4 9.7-6.2 12.4l2.4 6.1c0.3 0.8-0.2 1.2-0.8 1.2zm-10.6-31.1c-6.3 0-10.7 4.9-10.7 11.4 0 6.5 4.4 11.4 10.7 11.4q2.2 0 4-0.7l-2.5-6.5c-0.3-0.8 0.2-1.3 0.9-1.3h2.1c0.7 0 1 0.4 1.2 0.8l1.8 4.8c2.1-2.1 3.3-5.1 3.3-8.5 0-6.5-4.5-11.4-10.8-11.4z"/>
		<g id="&lt;Group&gt;">
			<path id="&lt;Compound Path&gt;" class="s8" d="m1769.7 219.1h-2.2c-0.4 0-0.5-0.3-0.3-0.6l6.6-9.4-6.1-9c-0.1-0.2 0.1-0.6 0.4-0.6h2.1c0.3 0 0.5 0.2 0.7 0.5l4.9 7 4.8-7c0.1-0.3 0.4-0.5 0.7-0.5h2.1c0.4 0 0.5 0.4 0.3 0.6l-6.2 8.9 6.6 9.5c0.2 0.3 0.1 0.6-0.3 0.6h-2.2c-0.4 0-0.6-0.2-0.8-0.4l-5.2-7.5-5.1 7.5c-0.2 0.3-0.4 0.4-0.8 0.4z"/>
		</g>
		<g id="&lt;Group&gt;">
			<path id="&lt;Compound Path&gt;" class="s8" d="m1018.5 35.1h-2.1c-0.4 0-0.5-0.3-0.3-0.6l6.6-9.4-6.1-9c-0.2-0.2 0-0.6 0.3-0.6h2.1c0.4 0 0.6 0.2 0.8 0.5l4.8 7 4.9-7c0.1-0.3 0.3-0.5 0.7-0.5h2c0.4 0 0.6 0.4 0.4 0.6l-6.2 8.9 6.6 9.5c0.2 0.3 0.1 0.6-0.3 0.6h-2.3c-0.3 0-0.5-0.2-0.7-0.4l-5.2-7.5-5.2 7.5c-0.1 0.3-0.4 0.4-0.8 0.4z"/>
		</g>
	</g>
</svg>