<svg xmlns="http://www.w3.org/2000/svg" viewBox="0 0 64 64">
  <!-- Arduino core logo mark (infinity) as favicon -->
  <path
    d="M314.2 96.2c0-37.8-31.9-68.5-71-68.5-3.6 0-7.3.2-10.9.8-30.4 4.3-50.8 26.2-62.2 43-11.4-16.8-31.8-38.7-62.2-43-3.6-.5-7.3-.8-10.9-.8-39.2 0-71 30.7-71 68.5s31.9 68.5 71 68.5c3.6 0 7.3-.2 11-.8 30.4-4.4 50.8-26.3 62.2-43.1 11.4 16.8 31.8 38.7 62.2 43.1 3.6.5 7.3.8 11 .8 38.9 0 70.8-30.7 70.8-68.5m-209.8 43.7c-2.5.4-5 .5-7.5.5-25.8 0-46.7-19.9-46.7-44.2C50.2 71.8 71.2 52 97 52c2.5 0 5 .2 7.5.5 28.7 4.1 46.2 32.4 52.2 43.7-6.1 11.4-23.7 39.6-52.3 43.7m79.1-43.7c5.9-11.3 23.5-39.6 52.2-43.7 2.5-.3 5-.5 7.5-.5 25.8 0 46.7 19.9 46.7 44.2 0 24.4-21 44.2-46.7 44.2-2.5 0-5-.2-7.5-.5-28.7-4.1-46.3-32.4-52.2-43.7"
    fill="#00979d"
    fill-rule="nonzero"
    transform="translate(2 16) scale(0.18)"
  />
</svg>